<?xml version="1.0" encoding="UTF-8" standalone="no"?>
<!DOCTYPE svg PUBLIC "-//W3C//DTD SVG 1.1//EN"
 "http://www.w3.org/Graphics/SVG/1.1/DTD/svg11.dtd">
<!-- Generated by graphviz version 2.40.1 (20161225.0304)
 -->
<!-- Title: ml Pages: 1 -->
<svg width="981pt" height="1108pt"
 viewBox="0.00 0.00 980.50 1108.00" xmlns="http://www.w3.org/2000/svg" xmlns:xlink="http://www.w3.org/1999/xlink">
<g id="graph0" class="graph" transform="scale(1 1) rotate(0) translate(4 1104)">
<title>ml</title>
<polygon fill="#ffffff" stroke="transparent" points="-4,4 -4,-1104 976.5,-1104 976.5,4 -4,4"/>
<!-- ndByteBuffer -->
<g id="node1" class="node">
<title>ndByteBuffer</title>
<polygon fill="none" stroke="#000000" points="423.5,-722.5 423.5,-956.5 768.5,-956.5 768.5,-722.5 423.5,-722.5"/>
<text text-anchor="middle" x="596" y="-941.3" font-family="Times,serif" font-size="14.00" fill="#000000">&lt;&lt;&lt;Structure&gt;&gt;&gt;</text>
<text text-anchor="middle" x="596" y="-926.3" font-family="Times,serif" font-size="14.00" fill="#000000">ByteBuffer</text>
<polyline fill="none" stroke="#000000" points="423.5,-918.5 768.5,-918.5 "/>
<text text-anchor="middle" x="596" y="-903.3" font-family="Times,serif" font-size="14.00" fill="#000000">&#45; data: &amp;&#39;a [u8]</text>
<text text-anchor="middle" x="596" y="-888.3" font-family="Times,serif" font-size="14.00" fill="#000000">&#45; index: usize</text>
<polyline fill="none" stroke="#000000" points="423.5,-880.5 768.5,-880.5 "/>
<text text-anchor="middle" x="596" y="-865.3" font-family="Times,serif" font-size="14.00" fill="#000000">+ new(data: &amp;[u8]) &#45;&gt; ByteBuffer</text>
<text text-anchor="middle" x="596" y="-850.3" font-family="Times,serif" font-size="14.00" fill="#000000">+ data(&amp;self) &#45;&gt; &amp;&#39;a [u8]</text>
<text text-anchor="middle" x="596" y="-835.3" font-family="Times,serif" font-size="14.00" fill="#000000">+ index(&amp;self) &#45;&gt; usize</text>
<text text-anchor="middle" x="596" y="-820.3" font-family="Times,serif" font-size="14.00" fill="#000000">+ read_bool(&amp;mut self) &#45;&gt; Result&lt;bool, ()&gt;</text>
<text text-anchor="middle" x="596" y="-805.3" font-family="Times,serif" font-size="14.00" fill="#000000">+ read_byte(&amp;mut self) &#45;&gt; Result&lt;u8, ()&gt;</text>
<text text-anchor="middle" x="596" y="-790.3" font-family="Times,serif" font-size="14.00" fill="#000000">+ read_bytes(&amp;mut self, len: usize) &#45;&gt; Result&lt;&amp;&#39;a [u8], ()&gt;</text>
<text text-anchor="middle" x="596" y="-775.3" font-family="Times,serif" font-size="14.00" fill="#000000">+ read_var_int(&amp;mut self) &#45;&gt; Result&lt;i32, ()&gt;</text>
<text text-anchor="middle" x="596" y="-760.3" font-family="Times,serif" font-size="14.00" fill="#000000">+ read_var_uint(&amp;mut self) &#45;&gt; Result&lt;u32, ()&gt;</text>
<text text-anchor="middle" x="596" y="-745.3" font-family="Times,serif" font-size="14.00" fill="#000000">+ read_var_float(&amp;mut self) &#45;&gt; Result&lt;f32, ()&gt;</text>
<text text-anchor="middle" x="596" y="-730.3" font-family="Times,serif" font-size="14.00" fill="#000000">+ read_string(&amp;mut self) &#45;&gt; Result&lt;Cow&lt;&#39;a, str&gt;, ()&gt;</text>
</g>
<!-- ndSchema -->
<g id="node6" class="node">
<title>ndSchema</title>
<polygon fill="none" stroke="#000000" points="144,-474 144,-678 568,-678 568,-474 144,-474"/>
<text text-anchor="middle" x="356" y="-662.8" font-family="Times,serif" font-size="14.00" fill="#000000">&lt;&lt;&lt;Structure&gt;&gt;&gt;</text>
<text text-anchor="middle" x="356" y="-647.8" font-family="Times,serif" font-size="14.00" fill="#000000">Schema</text>
<polyline fill="none" stroke="#000000" points="144,-640 568,-640 "/>
<text text-anchor="middle" x="356" y="-624.8" font-family="Times,serif" font-size="14.00" fill="#000000">+ name: String</text>
<text text-anchor="middle" x="356" y="-609.8" font-family="Times,serif" font-size="14.00" fill="#000000">+ defs: Vec&lt;Def&gt;</text>
<text text-anchor="middle" x="356" y="-594.8" font-family="Times,serif" font-size="14.00" fill="#000000">+ def_name_to_index: HashMap&lt;String, usize&gt;</text>
<polyline fill="none" stroke="#000000" points="144,-587 568,-587 "/>
<text text-anchor="middle" x="356" y="-571.8" font-family="Times,serif" font-size="14.00" fill="#000000">+ new(name: String, mut defs: Vec&lt;Def&gt;) &#45;&gt; Schema</text>
<text text-anchor="middle" x="356" y="-556.8" font-family="Times,serif" font-size="14.00" fill="#000000">+ decode(name: String, bytes: &amp;[u8]) &#45;&gt; Result&lt;Schema, ()&gt;</text>
<text text-anchor="middle" x="356" y="-541.8" font-family="Times,serif" font-size="14.00" fill="#000000">+ save_to(target: String, bytes: Vec&lt;u8&gt;) &#45;&gt; std::io::Result&lt;()&gt;</text>
<text text-anchor="middle" x="356" y="-526.8" font-family="Times,serif" font-size="14.00" fill="#000000">+ encode(&amp;self) &#45;&gt; Vec&lt;u8&gt;</text>
<text text-anchor="middle" x="356" y="-511.8" font-family="Times,serif" font-size="14.00" fill="#000000">+ def(&amp;self, name: &amp;str) &#45;&gt; Option&lt;&amp;Def&gt;</text>
<text text-anchor="middle" x="356" y="-496.8" font-family="Times,serif" font-size="14.00" fill="#000000">+ skip(&amp;self, bb: &amp;mut ByteBuffer, type_id: i32) &#45;&gt; Result&lt;(), ()&gt;</text>
<text text-anchor="middle" x="356" y="-481.8" font-family="Times,serif" font-size="14.00" fill="#000000">+ skip_field(&amp;self, bb: &amp;mut ByteBuffer, field: &amp;Field) &#45;&gt; Result&lt;(), ()&gt;</text>
</g>
<!-- ndByteBuffer&#45;&gt;ndSchema -->
<g id="edge1" class="edge">
<title>ndByteBuffer&#45;&gt;ndSchema</title>
<path fill="none" stroke="#000000" stroke-dasharray="5,2" d="M489.3348,-722.3905C478.2417,-710.2112 466.9946,-697.8629 455.9792,-685.7688"/>
<polygon fill="#000000" stroke="#000000" points="449.1539,-678.2752 459.2145,-682.6381 452.5208,-681.9718 455.8876,-685.6683 455.8876,-685.6683 455.8876,-685.6683 452.5208,-681.9718 452.5608,-688.6985 449.1539,-678.2752 449.1539,-678.2752"/>
</g>
<!-- ndValue -->
<g id="node7" class="node">
<title>ndValue</title>
<polygon fill="none" stroke="#000000" points="379.5,-.5 379.5,-429.5 972.5,-429.5 972.5,-.5 379.5,-.5"/>
<text text-anchor="middle" x="676" y="-414.3" font-family="Times,serif" font-size="14.00" fill="#000000">&lt;&lt;&lt;Enumeration&gt;&gt;&gt;</text>
<text text-anchor="middle" x="676" y="-399.3" font-family="Times,serif" font-size="14.00" fill="#000000">Value</text>
<polyline fill="none" stroke="#000000" points="379.5,-391.5 972.5,-391.5 "/>
<text text-anchor="middle" x="676" y="-376.3" font-family="Times,serif" font-size="14.00" fill="#000000">Bool(bool)</text>
<text text-anchor="middle" x="676" y="-361.3" font-family="Times,serif" font-size="14.00" fill="#000000">Byte(u8)</text>
<text text-anchor="middle" x="676" y="-346.3" font-family="Times,serif" font-size="14.00" fill="#000000">Int(i32)</text>
<text text-anchor="middle" x="676" y="-331.3" font-family="Times,serif" font-size="14.00" fill="#000000">UInt(u32)</text>
<text text-anchor="middle" x="676" y="-316.3" font-family="Times,serif" font-size="14.00" fill="#000000">Float(f32)</text>
<text text-anchor="middle" x="676" y="-301.3" font-family="Times,serif" font-size="14.00" fill="#000000">String(String)</text>
<text text-anchor="middle" x="676" y="-286.3" font-family="Times,serif" font-size="14.00" fill="#000000">Array(Vec&lt;Value&lt;&#39;a&gt;&gt;)</text>
<text text-anchor="middle" x="676" y="-271.3" font-family="Times,serif" font-size="14.00" fill="#000000">Enum(&amp;&#39;a str, &amp;&#39;a str)</text>
<text text-anchor="middle" x="676" y="-256.3" font-family="Times,serif" font-size="14.00" fill="#000000">Object(&amp;&#39;a str, HashMap&lt;&amp;&#39;a str, Value&lt;&#39;a&gt;&gt;)</text>
<polyline fill="none" stroke="#000000" points="379.5,-248.5 972.5,-248.5 "/>
<text text-anchor="middle" x="676" y="-233.3" font-family="Times,serif" font-size="14.00" fill="#000000">+ as_bool(&amp;self) &#45;&gt; bool</text>
<text text-anchor="middle" x="676" y="-218.3" font-family="Times,serif" font-size="14.00" fill="#000000">+ as_byte(&amp;self) &#45;&gt; u8</text>
<text text-anchor="middle" x="676" y="-203.3" font-family="Times,serif" font-size="14.00" fill="#000000">+ as_int(&amp;self) &#45;&gt; i32</text>
<text text-anchor="middle" x="676" y="-188.3" font-family="Times,serif" font-size="14.00" fill="#000000">+ as_uint(&amp;self) &#45;&gt; u32</text>
<text text-anchor="middle" x="676" y="-173.3" font-family="Times,serif" font-size="14.00" fill="#000000">+ as_float(&amp;self) &#45;&gt; f32</text>
<text text-anchor="middle" x="676" y="-158.3" font-family="Times,serif" font-size="14.00" fill="#000000">+ as_string(&amp;self) &#45;&gt; &amp;str</text>
<text text-anchor="middle" x="676" y="-143.3" font-family="Times,serif" font-size="14.00" fill="#000000">+ len(&amp;self) &#45;&gt; usize</text>
<text text-anchor="middle" x="676" y="-128.3" font-family="Times,serif" font-size="14.00" fill="#000000">+ push(&amp;mut self, value: Value&lt;&#39;a&gt;)</text>
<text text-anchor="middle" x="676" y="-113.3" font-family="Times,serif" font-size="14.00" fill="#000000">+ get(&amp;self, name: &amp;str) &#45;&gt; Option&lt;&amp;Value&lt;&#39;a&gt;&gt;</text>
<text text-anchor="middle" x="676" y="-98.3" font-family="Times,serif" font-size="14.00" fill="#000000">+ set(&amp;mut self, name: &amp;&#39;a str, value: Value&lt;&#39;a&gt;)</text>
<text text-anchor="middle" x="676" y="-83.3" font-family="Times,serif" font-size="14.00" fill="#000000">+ remove(&amp;mut self, name: &amp;&#39;a str)</text>
<text text-anchor="middle" x="676" y="-68.3" font-family="Times,serif" font-size="14.00" fill="#000000">+ decode(schema: &amp;&#39;a Schema, type_id: i32, bytes: &amp;[u8]) &#45;&gt; Result&lt;Value&lt;&#39;a&gt;, ()&gt;</text>
<text text-anchor="middle" x="676" y="-53.3" font-family="Times,serif" font-size="14.00" fill="#000000">+ encode(&amp;self, schema: &amp;Schema) &#45;&gt; Vec&lt;u8&gt;</text>
<text text-anchor="middle" x="676" y="-38.3" font-family="Times,serif" font-size="14.00" fill="#000000">+ decode_bb(schema: &amp;&#39;a Schema, type_id: i32, bb: &amp;mut ByteBuffer) &#45;&gt; Result&lt;Value&lt;&#39;a&gt;, ()&gt;</text>
<text text-anchor="middle" x="676" y="-23.3" font-family="Times,serif" font-size="14.00" fill="#000000">+ decode_field_bb(schema: &amp;&#39;a Schema, field: &amp;Field, bb: &amp;mut ByteBuffer) &#45;&gt; Result&lt;Value&lt;&#39;a&gt;, ()&gt;</text>
<text text-anchor="middle" x="676" y="-8.3" font-family="Times,serif" font-size="14.00" fill="#000000">+ encode_bb(&amp;self, schema: &amp;Schema, bb: &amp;mut ByteBufferMut)</text>
</g>
<!-- ndByteBuffer&#45;&gt;ndValue -->
<g id="edge2" class="edge">
<title>ndByteBuffer&#45;&gt;ndValue</title>
<path fill="none" stroke="#000000" stroke-dasharray="5,2" d="M596.8375,-722.4626C598.705,-648.5783 603.6237,-551.3103 616,-466 617.2502,-457.3823 618.6564,-448.6264 620.1877,-439.8029"/>
<polygon fill="#000000" stroke="#000000" points="621.9681,-429.8159 624.6431,-440.4505 621.0906,-434.7383 620.213,-439.6607 620.213,-439.6607 620.213,-439.6607 621.0906,-434.7383 615.7828,-438.8709 621.9681,-429.8159 621.9681,-429.8159"/>
</g>
<!-- ndByteBufferMut -->
<g id="node2" class="node">
<title>ndByteBufferMut</title>
<polygon fill="none" stroke="#000000" points="624.5,-466.5 624.5,-685.5 887.5,-685.5 887.5,-466.5 624.5,-466.5"/>
<text text-anchor="middle" x="756" y="-670.3" font-family="Times,serif" font-size="14.00" fill="#000000">&lt;&lt;&lt;Structure&gt;&gt;&gt;</text>
<text text-anchor="middle" x="756" y="-655.3" font-family="Times,serif" font-size="14.00" fill="#000000">ByteBufferMut</text>
<polyline fill="none" stroke="#000000" points="624.5,-647.5 887.5,-647.5 "/>
<text text-anchor="middle" x="756" y="-632.3" font-family="Times,serif" font-size="14.00" fill="#000000">&#45; data: Vec&lt;u8&gt;</text>
<polyline fill="none" stroke="#000000" points="624.5,-624.5 887.5,-624.5 "/>
<text text-anchor="middle" x="756" y="-609.3" font-family="Times,serif" font-size="14.00" fill="#000000">+ new() &#45;&gt; ByteBufferMut</text>
<text text-anchor="middle" x="756" y="-594.3" font-family="Times,serif" font-size="14.00" fill="#000000">+ data(self) &#45;&gt; Vec&lt;u8&gt;</text>
<text text-anchor="middle" x="756" y="-579.3" font-family="Times,serif" font-size="14.00" fill="#000000">+ len(&amp;self) &#45;&gt; usize</text>
<text text-anchor="middle" x="756" y="-564.3" font-family="Times,serif" font-size="14.00" fill="#000000">+ write_bool(&amp;mut self, value: bool)</text>
<text text-anchor="middle" x="756" y="-549.3" font-family="Times,serif" font-size="14.00" fill="#000000">+ write_byte(&amp;mut self, value: u8)</text>
<text text-anchor="middle" x="756" y="-534.3" font-family="Times,serif" font-size="14.00" fill="#000000">+ write_bytes(&amp;mut self, value: &amp;[u8])</text>
<text text-anchor="middle" x="756" y="-519.3" font-family="Times,serif" font-size="14.00" fill="#000000">+ write_var_int(&amp;mut self, value: i32)</text>
<text text-anchor="middle" x="756" y="-504.3" font-family="Times,serif" font-size="14.00" fill="#000000">+ write_var_uint(&amp;mut self, mut value: u32)</text>
<text text-anchor="middle" x="756" y="-489.3" font-family="Times,serif" font-size="14.00" fill="#000000">+ write_var_float(&amp;mut self, value: f32)</text>
<text text-anchor="middle" x="756" y="-474.3" font-family="Times,serif" font-size="14.00" fill="#000000">+ write_string(&amp;mut self, value: &amp;str)</text>
</g>
<!-- ndByteBufferMut&#45;&gt;ndValue -->
<g id="edge3" class="edge">
<title>ndByteBufferMut&#45;&gt;ndValue</title>
<path fill="none" stroke="#000000" stroke-dasharray="5,2" d="M731.6715,-466.2178C729.7473,-457.5345 727.7655,-448.592 725.7486,-439.4905"/>
<polygon fill="#000000" stroke="#000000" points="723.5472,-429.5568 730.1043,-438.3463 724.629,-434.4384 725.7109,-439.3199 725.7109,-439.3199 725.7109,-439.3199 724.629,-434.4384 721.3175,-440.2936 723.5472,-429.5568 723.5472,-429.5568"/>
</g>
<!-- ndField -->
<g id="node3" class="node">
<title>ndField</title>
<polygon fill="none" stroke="#000000" points="338,-993.5 338,-1099.5 454,-1099.5 454,-993.5 338,-993.5"/>
<text text-anchor="middle" x="396" y="-1084.3" font-family="Times,serif" font-size="14.00" fill="#000000">&lt;&lt;&lt;Structure&gt;&gt;&gt;</text>
<text text-anchor="middle" x="396" y="-1069.3" font-family="Times,serif" font-size="14.00" fill="#000000">Field</text>
<polyline fill="none" stroke="#000000" points="338,-1061.5 454,-1061.5 "/>
<text text-anchor="middle" x="396" y="-1046.3" font-family="Times,serif" font-size="14.00" fill="#000000">+ name: String</text>
<text text-anchor="middle" x="396" y="-1031.3" font-family="Times,serif" font-size="14.00" fill="#000000">+ type_id: i32</text>
<text text-anchor="middle" x="396" y="-1016.3" font-family="Times,serif" font-size="14.00" fill="#000000">+ is_array: bool</text>
<text text-anchor="middle" x="396" y="-1001.3" font-family="Times,serif" font-size="14.00" fill="#000000">+ value: u32</text>
</g>
<!-- ndDef -->
<g id="node5" class="node">
<title>ndDef</title>
<polygon fill="none" stroke="#000000" points="0,-752.5 0,-926.5 368,-926.5 368,-752.5 0,-752.5"/>
<text text-anchor="middle" x="184" y="-911.3" font-family="Times,serif" font-size="14.00" fill="#000000">&lt;&lt;&lt;Structure&gt;&gt;&gt;</text>
<text text-anchor="middle" x="184" y="-896.3" font-family="Times,serif" font-size="14.00" fill="#000000">Def</text>
<polyline fill="none" stroke="#000000" points="0,-888.5 368,-888.5 "/>
<text text-anchor="middle" x="184" y="-873.3" font-family="Times,serif" font-size="14.00" fill="#000000">+ name: String</text>
<text text-anchor="middle" x="184" y="-858.3" font-family="Times,serif" font-size="14.00" fill="#000000">+ index: i32</text>
<text text-anchor="middle" x="184" y="-843.3" font-family="Times,serif" font-size="14.00" fill="#000000">+ kind: DefKind</text>
<text text-anchor="middle" x="184" y="-828.3" font-family="Times,serif" font-size="14.00" fill="#000000">+ fields: Vec&lt;Field&gt;</text>
<text text-anchor="middle" x="184" y="-813.3" font-family="Times,serif" font-size="14.00" fill="#000000">+ field_value_to_index: HashMap&lt;u32, usize&gt;</text>
<text text-anchor="middle" x="184" y="-798.3" font-family="Times,serif" font-size="14.00" fill="#000000">+ field_name_to_index: HashMap&lt;String, usize&gt;</text>
<polyline fill="none" stroke="#000000" points="0,-790.5 368,-790.5 "/>
<text text-anchor="middle" x="184" y="-775.3" font-family="Times,serif" font-size="14.00" fill="#000000">+ new(name: String, kind: DefKind, fields: Vec&lt;Field&gt;) &#45;&gt; Def</text>
<text text-anchor="middle" x="184" y="-760.3" font-family="Times,serif" font-size="14.00" fill="#000000">+ field(&amp;self, name: &amp;str) &#45;&gt; Option&lt;&amp;Field&gt;</text>
</g>
<!-- ndField&#45;&gt;ndDef -->
<g id="edge4" class="edge">
<title>ndField&#45;&gt;ndDef</title>
<path fill="none" stroke="#000000" d="M341.68,-993.4612C323.4312,-975.6428 302.4768,-955.1826 281.9292,-935.1196"/>
<polygon fill="#000000" stroke="#000000" points="281.7431,-934.9378 274.6556,-933.6081 273.1571,-926.5543 280.2446,-927.8841 281.7431,-934.9378"/>
</g>
<!-- ndField&#45;&gt;ndSchema -->
<g id="edge5" class="edge">
<title>ndField&#45;&gt;ndSchema</title>
<path fill="none" stroke="#000000" stroke-dasharray="5,2" d="M394.2616,-993.2734C391.8412,-928.9 386.6275,-817.3105 377,-722 375.8953,-711.0632 374.5706,-699.6892 373.1307,-688.332"/>
<polygon fill="#000000" stroke="#000000" points="371.8384,-678.3673 377.5872,-687.7055 372.4815,-683.3258 373.1246,-688.2842 373.1246,-688.2842 373.1246,-688.2842 372.4815,-683.3258 368.662,-688.863 371.8384,-678.3673 371.8384,-678.3673"/>
</g>
<!-- ndField&#45;&gt;ndValue -->
<g id="edge6" class="edge">
<title>ndField&#45;&gt;ndValue</title>
<path fill="none" stroke="#000000" stroke-dasharray="5,2" d="M454.3777,-1039.2708C548.7394,-1026.549 729.1577,-997.6068 778,-957 879.1526,-872.9033 869.9794,-814.74 897,-686 917.0845,-590.3072 931.5326,-557.4767 897,-466 893.5013,-456.7318 889.4872,-447.5841 885.0419,-438.582"/>
<polygon fill="#000000" stroke="#000000" points="880.4561,-429.6293 889.0203,-436.4781 882.7356,-434.0794 885.0152,-438.5296 885.0152,-438.5296 885.0152,-438.5296 882.7356,-434.0794 881.01,-440.5812 880.4561,-429.6293 880.4561,-429.6293"/>
</g>
<!-- ndDefKind -->
<g id="node4" class="node">
<title>ndDefKind</title>
<polygon fill="none" stroke="#000000" points="115.5,-1001 115.5,-1092 252.5,-1092 252.5,-1001 115.5,-1001"/>
<text text-anchor="middle" x="184" y="-1076.8" font-family="Times,serif" font-size="14.00" fill="#000000">&lt;&lt;&lt;Enumeration&gt;&gt;&gt;</text>
<text text-anchor="middle" x="184" y="-1061.8" font-family="Times,serif" font-size="14.00" fill="#000000">DefKind</text>
<polyline fill="none" stroke="#000000" points="115.5,-1054 252.5,-1054 "/>
<text text-anchor="middle" x="184" y="-1038.8" font-family="Times,serif" font-size="14.00" fill="#000000">Enum</text>
<text text-anchor="middle" x="184" y="-1023.8" font-family="Times,serif" font-size="14.00" fill="#000000">Struct</text>
<text text-anchor="middle" x="184" y="-1008.8" font-family="Times,serif" font-size="14.00" fill="#000000">Message</text>
</g>
<!-- ndDefKind&#45;&gt;ndDef -->
<g id="edge7" class="edge">
<title>ndDefKind&#45;&gt;ndDef</title>
<path fill="none" stroke="#000000" stroke-dasharray="5,2" d="M184,-1000.8167C184,-982.4329 184,-960.466 184,-938.749"/>
<polygon fill="#000000" stroke="#000000" points="184.0001,-938.7341 180,-932.7342 184,-926.7341 188,-932.7341 184.0001,-938.7341"/>
</g>
<!-- ndDef&#45;&gt;ndSchema -->
<g id="edge8" class="edge">
<title>ndDef&#45;&gt;ndSchema</title>
<path fill="none" stroke="#000000" d="M240.7959,-752.49C254.2271,-731.9137 268.7368,-709.6853 282.7812,-688.1695"/>
<polygon fill="#000000" stroke="#000000" points="282.8535,-688.0587 282.7836,-680.8479 289.4128,-678.01 289.4827,-685.2208 282.8535,-688.0587"/>
</g>
<!-- ndSchema&#45;&gt;ndValue -->
<g id="edge9" class="edge">
<title>ndSchema&#45;&gt;ndValue</title>
<path fill="none" stroke="#000000" stroke-dasharray="5,2" d="M446.416,-473.9994C456.9219,-462.1475 467.9248,-449.7348 479.185,-437.032"/>
<polygon fill="#000000" stroke="#000000" points="485.8427,-429.5212 482.5768,-439.9895 482.526,-433.2629 479.2093,-437.0045 479.2093,-437.0045 479.2093,-437.0045 482.526,-433.2629 475.8418,-434.0195 485.8427,-429.5212 485.8427,-429.5212"/>
</g>
</g>
</svg>
